<?xml version="1.0" encoding="UTF-8" standalone="no"?>
<!-- Created with Inkscape (http://www.inkscape.org/) -->

<svg
   xmlns:dc="http://purl.org/dc/elements/1.1/"
   xmlns:cc="http://creativecommons.org/ns#"
   xmlns:rdf="http://www.w3.org/1999/02/22-rdf-syntax-ns#"
   xmlns:svg="http://www.w3.org/2000/svg"
   xmlns="http://www.w3.org/2000/svg"
   xmlns:sodipodi="http://sodipodi.sourceforge.net/DTD/sodipodi-0.dtd"
   xmlns:inkscape="http://www.inkscape.org/namespaces/inkscape"
   version="1.1"
   width="13.5"
   height="5"
   id="svg3089"
   inkscape:version="0.48.3.1 r9886"
   sodipodi:docname="asl.svg">
  <sodipodi:namedview
     pagecolor="#fffcff"
     bordercolor="#666666"
     borderopacity="1"
     objecttolerance="10"
     gridtolerance="10"
     guidetolerance="10"
     inkscape:pageopacity="0"
     inkscape:pageshadow="2"
     inkscape:window-width="1920"
     inkscape:window-height="1056"
     id="namedview3182"
     showgrid="false"
     fit-margin-top="0"
     fit-margin-left="0"
     fit-margin-right="0"
     fit-margin-bottom="0"
     inkscape:zoom="28.40625"
     inkscape:cx="19.507602"
     inkscape:cy="8.6869015"
     inkscape:window-x="0"
     inkscape:window-y="24"
     inkscape:window-maximized="1"
     inkscape:current-layer="svg3089" />
  <metadata
     id="metadata3095">
    <rdf:RDF>
      <cc:Work
         rdf:about="">
        <dc:format>image/svg+xml</dc:format>
        <dc:type
           rdf:resource="http://purl.org/dc/dcmitype/StillImage" />
        <dc:title></dc:title>
      </cc:Work>
    </rdf:RDF>
  </metadata>
  <defs
     id="defs3093" />
  <rect
     style="fill:#ff0000;fill-opacity:1;stroke:none"
     id="rect4202"
     width="13.5"
     height="5"
     x="0"
     y="0"
     ry="0" />
  <path
     d="m 6.2480005,0 0,0.31249961 -0.5418868,0 c -0.067875,0 -0.1299248,0.0416874 -0.1529248,0.10638737 l -0.1861623,0.51861685 2.616347,0 0.1495999,-0.31249961 -0.4654245,0 c -0.08525,-5.675e-4 -0.1529247,-0.0699999 -0.1529247,-0.15624981 0,-0.0862499 0.067625,-0.15571855 0.1529247,-0.1562498 l 1.1968111,0 0,0.31249961 -0.388962,0 -0.2227372,0.46874938 0.4321744,0.9109026 c 0.1603873,-0.056487 0.3322621,-0.089762 0.5119744,-0.089762 0.8519243,0 1.5425483,0.6906228 1.5425483,1.5425505 0,0.8519277 -0.690624,1.5425519 -1.5425483,1.5425519 -0.805474,0 -1.4661732,-0.618903 -1.5359106,-1.4062483 l -0.6881616,0 c -0.046,0 -0.09275,-0.021613 -0.1229999,-0.056512 L 5.1343144,1.5824505 4.9614396,2.0644987 C 5.4835515,2.3117021 5.845751,2.8413989 5.845751,3.4574482 5.845751,4.3093759 5.1551269,5 4.3031905,5 3.4512665,5 2.7606424,4.3093759 2.7606424,3.4574482 c 0,-0.8519277 0.6906241,-1.5425506 1.5425481,-1.5425506 0.1271748,0 0.2507997,0.017525 0.3690245,0.046537 L 5.2606393,0.32247295 C 5.3301393,0.12868694 5.512489,8.5e-7 5.7160887,8.5e-7 l 0.5319119,0 z m 1.5857733,1.2499984 -2.5797845,0 1.6755356,1.9082427 0.9042489,-1.9082427 z m 0.2460122,0.2027923 -0.8643614,1.8251302 0.4487994,0 C 7.7209739,2.792254 8.0052612,2.3745945 8.4055857,2.1343061 L 8.079786,1.4527907 z m 1.1170236,0.781249 c -0.1303997,0 -0.2544997,0.022063 -0.3723495,0.059837 l 0.5119744,1.0804512 c 0.0225,0.047662 0.01812,0.1014499 -0.01,0.146276 -0.02775,0.04455 -0.07725,0.073138 -0.1296499,0.073138 l -1.216761,0 c 0.06725,0.6120667 0.5867743,1.0870998 1.216761,1.0870998 0.6756619,0 1.2233994,-0.5477368 1.2233994,-1.2234034 0,-0.6756667 -0.5477375,-1.2234022 -1.2233994,-1.2234022 z m -4.8936191,0 c -0.6756617,0 -1.2233985,0.5477356 -1.2233985,1.2234022 0,0.6756667 0.5477368,1.2234035 1.2233985,1.2234035 0.6756741,0 1.2234109,-0.5477368 1.2234109,-1.2234035 0,-0.4773681 -0.2760996,-0.8888226 -0.6748741,-1.0904236 L 4.4494653,3.4906869 C 4.4197153,3.5709869 4.3297154,3.6099617 4.250003,3.5804489 4.171628,3.5512989 4.1336282,3.464099 4.160253,3.3843054 L 4.5625151,2.2606359 c -0.08375,-0.018137 -0.1700746,-0.0266 -0.259312,-0.0266 z m 4.238695,0.1894948 C 8.2479734,2.6100805 8.0394987,2.9187039 7.9866986,3.2779209 l 0.9607738,0 -0.405587,-0.8543864"
     id="symbool_fiets_zwart"
     inkscape:connector-curvature="0"
     style="fill:#ffffff" />
</svg>
