<?xml version="1.0" encoding="UTF-8" standalone="no"?>
<!-- Created with Inkscape (http://www.inkscape.org/) -->

<svg
   xmlns:dc="http://purl.org/dc/elements/1.1/"
   xmlns:cc="http://creativecommons.org/ns#"
   xmlns:rdf="http://www.w3.org/1999/02/22-rdf-syntax-ns#"
   xmlns:svg="http://www.w3.org/2000/svg"
   xmlns="http://www.w3.org/2000/svg"
   version="1.1"
   width="6"
   height="16"
   id="svg3089">
  <metadata
     id="metadata3095">
    <rdf:RDF>
      <cc:Work
         rdf:about="">
        <dc:format>image/svg+xml</dc:format>
        <dc:type
           rdf:resource="http://purl.org/dc/dcmitype/StillImage" />
        <dc:title></dc:title>
      </cc:Work>
    </rdf:RDF>
  </metadata>
  <defs
     id="defs3093" />
  <path
     d="M 3,0 C 1.338,0 0,1.338 0,3 l 0,10 c 0,1.662 1.338,3 3,3 1.662,0 3,-1.338 3,-3 L 6,3 C 6,1.338 4.662,0 3,0 z M 3,1.5 C 3.8284271,1.5 4.5,2.1715729 4.5,3 4.5,3.8284271 3.8284271,4.5 3,4.5 2.1715729,4.5 1.5,3.8284271 1.5,3 1.5,2.1715729 2.1715729,1.5 3,1.5 z m 0,5 C 3.8284271,6.5 4.5,7.1715729 4.5,8 4.5,8.8284271 3.8284271,9.5 3,9.5 2.1715729,9.5 1.5,8.8284271 1.5,8 1.5,7.1715729 2.1715729,6.5 3,6.5 z m 0,5 c 0.8284271,0 1.5,0.671573 1.5,1.5 0,0.828427 -0.6715729,1.5 -1.5,1.5 -0.8284271,0 -1.5,-0.671573 -1.5,-1.5 0,-0.828427 0.6715729,-1.5 1.5,-1.5 z"
     id="rect3101"
     style="fill:#000000;fill-opacity:1;stroke:none" />
</svg>
