<?xml version="1.0" encoding="UTF-8" standalone="no"?>
<!-- Created with Inkscape (http://www.inkscape.org/) -->

<svg
   xmlns:dc="http://purl.org/dc/elements/1.1/"
   xmlns:cc="http://creativecommons.org/ns#"
   xmlns:rdf="http://www.w3.org/1999/02/22-rdf-syntax-ns#"
   xmlns:svg="http://www.w3.org/2000/svg"
   xmlns="http://www.w3.org/2000/svg"
   xmlns:sodipodi="http://sodipodi.sourceforge.net/DTD/sodipodi-0.dtd"
   xmlns:inkscape="http://www.inkscape.org/namespaces/inkscape"
   version="1.1"
   width="4"
   height="12.4"
   id="svg3089"
   inkscape:version="0.48.3.1 r9886"
   sodipodi:docname="traffic_light.svg">
  <sodipodi:namedview
     pagecolor="#ffffff"
     bordercolor="#666666"
     borderopacity="1"
     objecttolerance="10"
     gridtolerance="10"
     guidetolerance="10"
     inkscape:pageopacity="0"
     inkscape:pageshadow="2"
     inkscape:window-width="1920"
     inkscape:window-height="1056"
     id="namedview3182"
     showgrid="false"
     fit-margin-top="0"
     fit-margin-left="0"
     fit-margin-right="0"
     fit-margin-bottom="0"
     inkscape:zoom="40.172504"
     inkscape:cx="12.069322"
     inkscape:cy="3.2501333"
     inkscape:window-x="0"
     inkscape:window-y="24"
     inkscape:window-maximized="1"
     inkscape:current-layer="svg3089" />
  <metadata
     id="metadata3095">
    <rdf:RDF>
      <cc:Work
         rdf:about="">
        <dc:format>image/svg+xml</dc:format>
        <dc:type
           rdf:resource="http://purl.org/dc/dcmitype/StillImage" />
        <dc:title></dc:title>
      </cc:Work>
    </rdf:RDF>
  </metadata>
  <defs
     id="defs3093" />
  <g
     id="g3219"
     transform="scale(1.3333333,1.3333333)">
    <path
       transform="translate(0,-1.5)"
       d="M 3,3 C 3,3.8284271 2.3284271,4.5 1.5,4.5 0.67157288,4.5 0,3.8284271 0,3 0,2.1715729 0.67157288,1.5 1.5,1.5 2.3284271,1.5 3,2.1715729 3,3 z"
       sodipodi:ry="1.5"
       sodipodi:rx="1.5"
       sodipodi:cy="3"
       sodipodi:cx="1.5"
       id="path3190"
       style="fill:#ff0000;fill-opacity:1;stroke:none"
       sodipodi:type="arc" />
    <path
       sodipodi:type="arc"
       style="fill:#00ff00;fill-opacity:1;stroke:none"
       id="path3196"
       sodipodi:cx="1.5"
       sodipodi:cy="3"
       sodipodi:rx="1.5"
       sodipodi:ry="1.5"
       d="M 3,3 C 3,3.8284271 2.3284271,4.5 1.5,4.5 0.67157288,4.5 0,3.8284271 0,3 0,2.1715729 0.67157288,1.5 1.5,1.5 2.3284271,1.5 3,2.1715729 3,3 z"
       transform="translate(0,4.8)" />
    <path
       transform="translate(0,1.6)"
       d="M 3,3 C 3,3.8284271 2.3284271,4.5 1.5,4.5 0.67157288,4.5 0,3.8284271 0,3 0,2.1715729 0.67157288,1.5 1.5,1.5 2.3284271,1.5 3,2.1715729 3,3 z"
       sodipodi:ry="1.5"
       sodipodi:rx="1.5"
       sodipodi:cy="3"
       sodipodi:cx="1.5"
       id="path3198"
       style="fill:#ffff00;fill-opacity:1;stroke:none"
       sodipodi:type="arc" />
  </g>
</svg>
